<?xml version="1.0" encoding="UTF-8"?>
<svg width="21px" height="24px" viewBox="0 0 21 24" version="1.1" xmlns="http://www.w3.org/2000/svg" xmlns:xlink="http://www.w3.org/1999/xlink">
    <!-- Generator: Sketch 53.1 (72631) - https://sketchapp.com -->
    <title>Group 8 Copy 13</title>
    <desc>Created with Sketch.</desc>
    <defs>
        <polygon id="path-1" points="2.43902439e-05 0.0932647059 9.7812439 0.0932647059 9.7812439 21 2.43902439e-05 21"></polygon>
    </defs>
    <g id="Page-1" stroke="none" stroke-width="1" fill="none" fill-rule="evenodd">
        <g id="Group-8-Copy-13">
            <g id="Group-3" transform="translate(0.500000, 3.000000)">
                <mask id="mask-2" fill="white">
                    <use xlink:href="#path-1"></use>
                </mask>
                <g id="Clip-2"></g>
                <path d="M9.7812439,0.0932647059 L0.16197561,6.99855882 L0.151487805,7.00597059 C0.0566097561,7.07415882 2.43902439e-05,7.18484118 2.43902439e-05,7.30293529 L2.43902439e-05,7.30565294 L2.43902439e-05,14.0303471 L2.43902439e-05,14.0335588 C2.43902439e-05,14.1511588 0.0563658537,14.2615941 0.151,14.3295353 L0.16197561,14.3371941 L9.37612195,20.9517 C9.54612195,21.0737471 9.7812439,20.9507118 9.7812439,20.7394765 L9.7812439,0.0932647059 Z" id="Fill-1" fill="#273142" mask="url(#mask-2)"></path>
            </g>
            <path d="M10.27,21 L20.1044264,14.0639185 L20.1148994,14.0564737 C20.212149,13.9879814 20.27,13.8768056 20.27,13.7581849 L20.27,7.00077885 C20.27,6.87942845 20.2123983,6.76850077 20.1156475,6.70025668 L20.1044264,6.69256371 L10.6841835,0.0485669036 C10.510381,-0.0740243048 10.27,0.049559545 10.27,0.261736636 L10.27,21 Z" id="Fill-4" fill="#273142"></path>
            <path d="M7.87657729,17.5988099 C7.85329911,17.6027989 7.83173616,17.596698 7.81703414,17.5814458 C7.80257717,17.5664283 7.79694139,17.5450752 7.80159703,17.5220796 L7.93955091,16.8880577 L7.93955091,8.95011279 L7.80159703,8.36231676 C7.79694139,8.34143299 7.80257717,8.31773343 7.81703414,8.2980229 C7.83173616,8.27807773 7.85329911,8.26446808 7.87657729,8.26047904 L11.2673514,7.68770056 C12.6498307,7.45422469 13.6473622,7.68746591 14.2312772,8.38085404 C14.7262449,8.96911937 14.8,9.76059083 14.8,10.1801434 C14.8,10.601104 14.7262449,11.420968 14.2307871,12.1791193 C13.6473622,13.0728977 12.6498307,13.6440337 11.2673514,13.8777442 L10.2835418,14.0436411 L10.2835418,17.1175445 C10.2835418,17.1588428 10.248747,17.1980292 10.2056211,17.2057726 L7.87657729,17.5988099 Z M10.2835418,11.8721982 L11.2800932,11.7039548 C12.0110282,11.580764 12.3665719,11.2165886 12.3665719,10.5907794 C12.3665719,10.3608233 12.3665719,9.66109961 11.2800932,9.84459522 L10.2835418,10.012604 L10.2835418,11.8721982 Z" id="Fill-6" fill="#FEFEFE"></path>
        </g>
    </g>
</svg>